<svg width="60" height="60" viewBox="0 0 60 60" fill="none" xmlns="http://www.w3.org/2000/svg">
<circle cx="30" cy="30" r="30" fill="white" fill-opacity="0.2"/>
<path d="M13.9238 39.1922C13.9238 37.05 14.7748 34.9956 16.2895 33.4809C17.8042 31.9662 19.8586 31.1152 22.0008 31.1152H38.1546C40.2967 31.1152 42.3511 31.9662 43.8658 33.4809C45.3806 34.9956 46.2315 37.05 46.2315 39.1922C46.2315 40.2632 45.806 41.2904 45.0487 42.0478C44.2913 42.8051 43.2641 43.2306 42.1931 43.2306H17.9623C16.8912 43.2306 15.864 42.8051 15.1067 42.0478C14.3493 41.2904 13.9238 40.2632 13.9238 39.1922Z" stroke="white" stroke-opacity="0.8" stroke-width="3" stroke-linejoin="round"/>
<path d="M30.0772 23.0382C33.4228 23.0382 36.1349 20.3261 36.1349 16.9805C36.1349 13.635 33.4228 10.9229 30.0772 10.9229C26.7317 10.9229 24.0195 13.635 24.0195 16.9805C24.0195 20.3261 26.7317 23.0382 30.0772 23.0382Z" stroke="white" stroke-opacity="0.8" stroke-width="3"/>
</svg>
